<?xml version="1.0" encoding="UTF-8"?>
<svg width="400" height="225" viewBox="0 0 400 225" fill="none" xmlns="http://www.w3.org/2000/svg">
    <!-- Background with gradient -->
    <rect width="400" height="225" fill="url(#gradient)"/>
    
    <!-- Content Cards -->
    <rect x="80" y="60" width="100" height="60" rx="8" fill="#BE185D" stroke="#ffffff" stroke-width="2"/>
    <rect x="90" y="70" width="60" height="4" rx="2" fill="#ffffff"/>
    <rect x="90" y="80" width="80" height="4" rx="2" fill="#ffffff"/>
    <rect x="90" y="90" width="70" height="4" rx="2" fill="#ffffff"/>
    
    <rect x="220" y="100" width="100" height="60" rx="8" fill="#BE185D" stroke="#ffffff" stroke-width="2"/>
    <rect x="230" y="110" width="60" height="4" rx="2" fill="#ffffff"/>
    <rect x="230" y="120" width="80" height="4" rx="2" fill="#ffffff"/>
    <rect x="230" y="130" width="70" height="4" rx="2" fill="#ffffff"/>
    
    <!-- Connection Lines -->
    <path d="M180 90 L220 130" stroke="#ffffff" stroke-width="2" stroke-dasharray="4"/>
    
    <!-- Calendar Elements -->
    <rect x="150" y="140" width="100" height="60" rx="8" fill="#BE185D" stroke="#ffffff" stroke-width="2"/>
    <rect x="160" y="150" width="80" height="40" rx="4" fill="#ffffff" fill-opacity="0.1"/>
    <path d="M170 160 H230 M170 170 H230 M170 180 H230" stroke="#ffffff" stroke-width="2"/>
    
    <!-- Decorative Elements -->
    <circle cx="50" cy="50" r="25" fill="#BE185D" fill-opacity="0.2"/>
    <circle cx="350" cy="175" r="30" fill="#BE185D" fill-opacity="0.2"/>
    
    <!-- Gradient definition -->
    <defs>
        <linearGradient id="gradient" x1="0" y1="0" x2="400" y2="225" gradientUnits="userSpaceOnUse">
            <stop offset="0%" stop-color="#BE185D"/>
            <stop offset="100%" stop-color="#831843"/>
        </linearGradient>
    </defs>
</svg> 