<?xml version="1.0" encoding="UTF-8"?>
<svg width="400" height="225" viewBox="0 0 400 225" fill="none" xmlns="http://www.w3.org/2000/svg">
    <!-- Background with gradient -->
    <rect width="400" height="225" fill="url(#gradient)"/>
    
    <!-- Central Person -->
    <circle cx="200" cy="112" r="25" fill="#DB2777" stroke="#ffffff" stroke-width="3"/>
    <circle cx="200" cy="100" r="8" fill="#ffffff"/>
    <path d="M185 120 Q200 140 215 120" stroke="#ffffff" stroke-width="3" fill="none"/>
    
    <!-- Connected People -->
    <circle cx="120" cy="112" r="20" fill="#DB2777" stroke="#ffffff" stroke-width="2"/>
    <circle cx="280" cy="112" r="20" fill="#DB2777" stroke="#ffffff" stroke-width="2"/>
    <circle cx="200" cy="50" r="20" fill="#DB2777" stroke="#ffffff" stroke-width="2"/>
    <circle cx="160" cy="170" r="20" fill="#DB2777" stroke="#ffffff" stroke-width="2"/>
    <circle cx="240" cy="170" r="20" fill="#DB2777" stroke="#ffffff" stroke-width="2"/>
    
    <!-- Connection Lines -->
    <path d="M145 112 L175 112" stroke="#ffffff" stroke-width="2" stroke-dasharray="4"/>
    <path d="M225 112 L255 112" stroke="#ffffff" stroke-width="2" stroke-dasharray="4"/>
    <path d="M200 75 L200 87" stroke="#ffffff" stroke-width="2" stroke-dasharray="4"/>
    <path d="M180 140 L170 150" stroke="#ffffff" stroke-width="2" stroke-dasharray="4"/>
    <path d="M220 140 L230 150" stroke="#ffffff" stroke-width="2" stroke-dasharray="4"/>
    
    <!-- Decorative Elements -->
    <circle cx="50" cy="50" r="25" fill="#DB2777" fill-opacity="0.2"/>
    <circle cx="350" cy="175" r="30" fill="#DB2777" fill-opacity="0.2"/>
    
    <!-- Gradient definition -->
    <defs>
        <linearGradient id="gradient" x1="0" y1="0" x2="400" y2="225" gradientUnits="userSpaceOnUse">
            <stop offset="0%" stop-color="#DB2777"/>
            <stop offset="100%" stop-color="#831843"/>
        </linearGradient>
    </defs>
</svg>
